<svg id="Слой_1" data-name="Слой 1" xmlns="http://www.w3.org/2000/svg" viewBox="0 0 71 60"><defs><style>.cls-1{fill:#ed1062;}</style></defs><title>TeamUp</title><path id="TeamUp" class="cls-1" d="M17.993,25.62885a2.138,2.138,0,0,0-2.09388,1.31356,1.94167,1.94167,0,0,0-.215.59935h4.46774a2.55927,2.55927,0,0,0-.147-.6413A1.994,1.994,0,0,0,17.993,25.62885Zm10.33941,4.613a1.06776,1.06776,0,0,0-.626,1.0119,1.28972,1.28972,0,0,0,.173.62432,1.60067,1.60067,0,0,0,1.31593.56139,3.3248,3.3248,0,0,0,2.15888-.81811,3.07982,3.07982,0,0,0,.454-.62532V29.27188a9.077,9.077,0,0,1-2.19988.53841A4.46214,4.46214,0,0,0,28.33236,30.24182ZM60.5165,40.77336a2.05031,2.05031,0,0,0-1.31593.42953c-.65.47549-1.03794,1.29859-1.01494,2.88786a3.37905,3.37905,0,0,0,.84195,2.65111,2.20865,2.20865,0,0,0,2.22188.3666c.8-.3666,1.44591-1.42245,1.44591-3.27543a3.81279,3.81279,0,0,0-.6-2.26353A1.75245,1.75245,0,0,0,60.5165,40.77336ZM57.11669,29.3468c.007-.26172.02-.52243.02-.78614A28.55907,28.55907,0,1,0,42.87952,53.23879a15.37315,15.37315,0,1,0,14.23717-23.892ZM11.54033,34.59509a18.78888,18.78888,0,0,1-2.18088.14984c-1.53291,0-2.24486-.45251-2.63384-1.07683-.411-.6453-.453-1.44343-.432-2.97476V25.86559H4.69373V23.45122h1.5999V20.1548H9.46745v3.29642h1.96389v2.41437H9.46845v4.09554c-.022,1.68117-.087,2.19761,1.20793,2.19761h.583a1.25819,1.25819,0,0,1,.281-.021Zm11.95631-4.634H15.66109a3.2674,3.2674,0,0,0,.151.66827A2.5117,2.5117,0,0,0,16.999,32.13776a2.74638,2.74638,0,0,0,1.09994.21676,2.201,2.201,0,0,0,1.7699-.7332,4.79582,4.79582,0,0,0,.3-.45251l3.19381.21477a3.34018,3.34018,0,0,1-.281.75418,5.31657,5.31657,0,0,1-1.96489,2.04777,6.81129,6.81129,0,0,1-3.15081.75418,5.55449,5.55449,0,0,1-4.23076-1.76808,6.22809,6.22809,0,0,1-1.39992-4.13849,6.06868,6.06868,0,0,1,1.51191-4.18045A5.45851,5.45851,0,0,1,18.057,23.12856,5.07445,5.07445,0,0,1,21.81373,24.617c1.8129,1.874,1.70391,4.71886,1.68291,5.34318Zm8.5485,4.65493-.152-.99092a5.32393,5.32393,0,0,1-3.5198,1.31457,4.50406,4.50406,0,0,1-1.53191-.23674,3.45542,3.45542,0,0,1-2.35386-3.36234,3.30274,3.30274,0,0,1,1.03694-2.43535,7.58048,7.58048,0,0,1,3.56079-1.22866l.907-.12986a3.95511,3.95511,0,0,0,1.46791-.38758.62909.62909,0,0,0,.259-.53842.81967.81967,0,0,0-.237-.58137,2.04827,2.04827,0,0,0-1.48991-.4525,2.0729,2.0729,0,0,0-1.7699.7332,1.23562,1.23562,0,0,0-.172.66827H25.11554a4.02923,4.02923,0,0,1,.973-2.49728,5.0569,5.0569,0,0,1,4.03576-1.36251,5.43556,5.43556,0,0,1,3.69179,1.0988,2.91367,2.91367,0,0,1,.90495,1.35752,8.715,8.715,0,0,1,.238,2.82293v2.97476h0a6.86294,6.86294,0,0,0,.431,3.23149H32.04514Zm10.61139-8.232a1.63514,1.63514,0,0,0-.97194-.29967,1.88835,1.88835,0,0,0-.99194.2817c-.821.55939-.756,1.57229-.778,3.31738v4.93563H36.76387V23.45122h3.15082v1.48737a3.09178,3.09178,0,0,1,1.7489-1.55231,4.55749,4.55749,0,0,1,1.29993-.19379,3.29528,3.29528,0,0,1,2.60885,1.16374,3.34852,3.34852,0,0,1,.411.7322,3.296,3.296,0,0,1,.389-.56039,3.88459,3.88459,0,0,1,3.01881-1.30957,4.071,4.071,0,0,1,1.23093.17181,3.132,3.132,0,0,1,2.26587,2.3974,15.83224,15.83224,0,0,1,.153,2.88785v5.94653H49.86611V29.33581c0-.43153-.022-.884-.022-1.31557a5.06415,5.06415,0,0,0-.108-.8191,1.49173,1.49173,0,0,0-1.5329-1.12079,1.58512,1.58512,0,0,0-.96995.2817c-.692.47348-.734,1.27061-.713,2.736v5.517H43.32649V28.32191a2.2891,2.2891,0,0,0-.67-1.93888Zm10.54639,23.2457H50.18409V48.40206a2.87651,2.87651,0,0,1-.411.49946,4.05326,4.05326,0,0,1-2.80483,1.0129,3.52185,3.52185,0,0,1-3.13182-1.62324c-.559-1.0119-.559-2.04677-.559-4.26636v-5.557h3.17281v5.1504c0,1.789-.086,2.79695.755,3.38431a1.93936,1.93936,0,0,0,1.01494.2797,1.72966,1.72966,0,0,0,1.7269-1.29259,13.54215,13.54215,0,0,0,.172-2.736v-4.7848h3.08383Zm10.78337-.7322a4.29144,4.29144,0,0,1-2.84983,1.01389,5.07186,5.07186,0,0,1-.99194-.0869,3.31449,3.31449,0,0,1-1.94189-1.16373v4.46014H55.03281v-14.653h3.08682v1.31457a4.006,4.006,0,0,1,.5-.58237,3.67294,3.67294,0,0,1,2.67685-1.01389A4.25786,4.25786,0,0,1,64.96524,40.169a7.813,7.813,0,0,1,.95094,3.87878,6.47345,6.47345,0,0,1-1.92588,4.84972Z"/></svg>