<svg id="Layer_1" data-name="Layer 1" xmlns="http://www.w3.org/2000/svg" viewBox="0 0 186.67 80"><defs><style>.cls-1{fill:#fff;}</style></defs><title>ODI</title><path class="cls-1" d="M149.219.599V25.082a35.61134,35.61134,0,0,0-8.881-13.746,37.12407,37.12407,0,0,0-12.837-7.958A46.82173,46.82173,0,0,0,111.121.573L77.16.568V25.161a39.95912,39.95912,0,1,0,0,29.678V79.375l33.961-.006a46.77957,46.77957,0,0,0,16.38-2.805,37.18629,37.18629,0,0,0,12.837-7.959,35.61527,35.61527,0,0,0,8.881-13.746V79.402H186.67V.599Z"/></svg>