<svg id="Artwork" xmlns="http://www.w3.org/2000/svg" viewBox="0 0 258 76.5"><defs><style>.cls-1{fill:#fff;}</style></defs><title>sport_england</title><g id="_Group_4" data-name=" Group 4"><g id="_Group_5" data-name=" Group 5"><path id="_Path_9" data-name=" Path 9" class="cls-1" d="M108.91794,17.55532a2.17544,2.17544,0,0,0-.80087-2.00151,3.29166,3.29166,0,0,0-2.20238-.50038c-1.2013,0-2.90314.4003-2.90314,2.00151,0,1.80137,3.6039,1.90145,5.90639,2.80213,4.20455,1.50114,5.60607,3.80288,5.60607,6.605,0,5.8044-5.60607,8.50645-10.81171,8.50645-5.506,0-10.51139-2.5019-10.211-8.60653h7.2078a3.324,3.324,0,0,0,.901,2.70205,4.31758,4.31758,0,0,0,2.70292.60046c1.40152,0,3.20347-.70054,3.20347-2.30175,0-1.70129-2.50271-2.00151-5.80629-3.10235-2.9032-1.00076-5.7062-2.50189-5.7062-6.50493,0-5.40409,5.20563-7.906,10.111-7.906,5.10552,0,9.71051,1.90144,9.6104,7.80592Z"/><path id="_Compound_Path_2" data-name=" Compound Path 2" class="cls-1" d="M119.62955,10.34986h11.91288c4.40476,0,7.30793,2.40182,7.30793,7.70584,0,4.80364-4.10445,9.00683-10.41127,9.00683h-5.00542L121.932,34.36807h-7.30791ZM124.635,21.35821h2.803c3.00327,0,3.90424-1.10084,3.90424-2.702,0-1.80137-1.60175-2.20167-3.20348-2.20167h-2.50271Z"/><path id="_Compound_Path_3" data-name=" Compound Path 3" class="cls-1" d="M152.66531,9.74941c6.80738,0,10.91181,3.20243,10.91181,10.508,0,8.10615-5.30576,14.61108-13.51464,14.61108-6.80737,0-10.9118-3.60273-10.9118-10.508.10008-8.10614,5.40584-14.61107,13.51463-14.61107m-2.3025,19.11448c4.40477,0,5.90639-5.20394,5.90639-8.80667,0-2.20167-.80088-4.40334-3.704-4.40334-4.40477,0-5.90639,5.204-5.90639,8.80668,0,2.20166.80088,4.40333,3.704,4.40333"/><path id="_Compound_Path_4" data-name=" Compound Path 4" class="cls-1" d="M167.48137,10.34986h12.11311c4.40476,0,7.80846,1.20091,7.80846,6.30478a6.43182,6.43182,0,0,1-5.60608,6.605v.10007c2.20238.60046,2.50272,2.70205,2.50272,4.90372s-.30033,4.70357.30032,6.10463h-7.00758a4.98869,4.98869,0,0,1-.30033-2.40183c0-1.10083.40044-2.602.40044-3.80288s-.901-2.20167-3.00325-2.20167H171.4857L169.78386,34.368H162.476Zm5.10551,10.40789h3.90422c2.50272,0,3.60392-1.20091,3.60392-2.702,0-.90068-.60067-2.10159-2.50272-2.10159H173.588Z"/><polygon id="_Path_10" data-name=" Path 10" class="cls-1" points="195.111 16.454 188.504 16.454 189.705 10.35 210.428 10.35 209.126 16.454 202.519 16.454 198.815 34.268 191.407 34.268 195.111 16.454"/><polygon id="_Path_11" data-name=" Path 11" class="cls-1" points="98.407 42.774 118.228 42.774 117.027 48.979 104.613 48.979 103.913 51.981 115.425 51.981 114.224 57.686 102.711 57.686 102.111 60.588 114.824 60.588 113.523 66.793 93.401 66.793 98.407 42.774"/><polygon id="_Path_12" data-name=" Path 12" class="cls-1" points="120.43 42.774 127.738 42.774 132.243 55.884 132.343 55.884 135.046 42.774 142.054 42.774 137.048 66.793 129.74 66.793 125.336 53.382 125.336 53.382 122.533 66.793 115.525 66.793 120.43 42.774"/><path id="_Path_13" data-name=" Path 13" class="cls-1" d="M157.27029,64.4909h0a8.12089,8.12089,0,0,1-6.507,2.9022c-8.4091,0-9.71051-7.10538-9.71051-10.10766,0-7.50569,4.30466-15.01138,13.71484-15.01138,5.40584,0,9.91072,2.70205,9.91072,9.00683h-7.00758c-.20021-2.20167-1.50162-3.00228-3.40367-3.00228-4.10446,0-5.90639,4.30326-5.90639,8.50645,0,2.80213,1.2013,4.70356,4.20455,4.70356,2.00216,0,3.704-.70053,4.40475-2.702h-3.40369l1.1012-5.20395h9.81062l-2.803,13.21H156.97Z"/><polygon id="_Path_14" data-name=" Path 14" class="cls-1" points="168.983 42.774 176.391 42.774 172.687 60.588 183.298 60.588 181.997 66.793 164.078 66.793 168.983 42.774"/><path id="_Compound_Path_5" data-name=" Compound Path 5" class="cls-1" d="M196.6129,42.77444h7.30792l3.704,24.0182h-7.30793l-.40043-3.40258H192.108l-1.802,3.40258h-7.50813Zm-1.802,15.41168h4.605l-.80087-7.20547h-.1Z"/></g><g id="_Group_6" data-name=" Group 6"><polygon id="_Path_15" data-name=" Path 15" class="cls-1" points="213.631 42.774 220.939 42.774 225.444 55.884 225.544 55.884 228.247 42.774 235.255 42.774 230.249 66.793 222.941 66.793 218.537 53.382 218.437 53.382 215.734 66.793 208.626 66.793 213.631 42.774"/><path id="_Compound_Path_6" data-name=" Compound Path 6" class="cls-1" d="M237.45714,42.77444h11.01192c4.40475,0,9.91073,2.80212,9.51031,10.608-.40042,8.00607-5.40585,13.41017-13.71484,13.41017H232.45172Zm3.704,17.8135h3.60392c4.8052,0,5.90638-5.00379,5.90638-7.20546,0-3.60273-1.902-4.50342-4.30465-4.50342h-2.70293Z"/></g><g id="_Group_7" data-name=" Group 7"><path id="_Path_16" data-name=" Path 16" class="cls-1" d="M76.38271,36.97c0,.4003.10012.90068.10012,1.301A38.48794,38.48794,0,0,1,53.05745,73.5978L52.95734,60.688s0-11.10841,6.80737-17.01289A27.53773,27.53773,0,0,1,76.38271,36.97"/><path id="_Path_17" data-name=" Path 17" class="cls-1" d="M23.52547,73.5978A38.3016,38.3016,0,0,1,0,38.171c0-.40031.10011-.90069.10011-1.301a28.82146,28.82146,0,0,1,16.7181,6.80516C23.62559,49.5796,23.52547,60.688,23.52547,60.688Z"/><path id="_Compound_Path_7" data-name=" Compound Path 7" class="cls-1" d="M24.72678,23.15957A13.36456,13.36456,0,1,1,38.1456,36.46965h-.0043A13.328,13.328,0,0,1,24.727,23.22847l-.00027-.0689M36.43946,76.5h3.50379V58.48635s.10011-14.91131,10.6115-23.718A50.27438,50.27438,0,0,1,73.98012,24.36048a38.33905,38.33905,0,0,0-71.3773-.10007A50.71621,50.71621,0,0,1,26.02818,34.66829C36.43946,43.575,36.53957,58.48635,36.53957,58.48635V76.39993Z"/></g></g></svg>